<svg width="29" height="25" viewBox="0 0 29 25" fill="none" xmlns="http://www.w3.org/2000/svg">
<path d="M4.38591 18.0134V17.2502H4.49994V17.1055H4.10959L3.87275 17.7765C3.84625 17.8381 3.82853 17.903 3.82012 17.9695C3.8114 17.9191 3.79514 17.8703 3.77187 17.8248L3.46924 17.1055H3.09644V17.2634H3.21047V18.0221H3.09644V18.18H3.49117V18.0265H3.37275V17.3949C3.38031 17.4436 3.39509 17.491 3.41661 17.5353L3.67538 18.1756H3.88591L4.11837 17.5441C4.13837 17.4995 4.15167 17.4522 4.15784 17.4037V18.0221H4.07889V18.18H4.49117V18.0221L4.38591 18.0134Z" fill="#DD0031"/>
<path d="M5.72807 17.0747V17.2282H5.83772L5.7807 17.2984L5.59211 17.5615L5.41228 17.3028L5.35526 17.237H5.4386V17.0791H5V17.237H5.08333L5.44737 17.7238V17.9826H5.35526V18.1405H5.77193V17.9826H5.67544V17.7194L6.02632 17.2238H6.10965V17.0659L5.72807 17.0747Z" fill="#DD0031"/>
<path fill-rule="evenodd" clip-rule="evenodd" d="M7.56567 17.0392H8.00427C8.26304 17.0348 8.39901 17.1401 8.42094 17.3594C8.42619 17.4536 8.39075 17.5455 8.32363 17.6117C8.25651 17.678 8.16417 17.7123 8.07006 17.7059H7.92094V17.9602H8.00427V18.1181H7.56567V17.9602H7.67094V17.1971H7.56567V17.0392ZM7.92096 17.5392H8.00429H8.03938C8.12452 17.5256 8.18717 17.4522 8.18717 17.366C8.18717 17.2798 8.12452 17.2063 8.03938 17.1927H7.92096V17.5392Z" fill="#DD0031"/>
<path d="M9.57451 17.9299L9.30697 17.9342L9.29819 17.1755L9.39469 17.1711L9.3903 17.0176L8.97363 17.022L8.97802 17.1799L9.07451 17.1755L9.08328 17.9386H8.98679L8.99118 18.0965L9.75872 18.0834L9.76749 17.7369H9.58328L9.57451 17.9299Z" fill="#DD0031"/>
<path d="M10.9122 17.9123H10.6447L10.6403 17.6009L10.9078 17.5965V17.4298L10.6359 17.4342L10.6315 17.1535L10.8947 17.1491L10.9078 17.3114L11.0921 17.307L11.0745 16.9912L10.2894 17L10.2938 17.1579H10.4078L10.421 17.9166L10.3245 17.921V18.0745L11.0964 18.0658L11.1052 17.7281H10.921L10.9122 17.9123Z" fill="#DD0031"/>
<path fill-rule="evenodd" clip-rule="evenodd" d="M12.3772 16.9692L12.7456 17.8815L12.8421 17.8991V18.0526H12.4035V17.8947H12.4912L12.4167 17.6885H12.0482L11.9737 17.8947H12.0789V18.0526H11.6798V17.8947H11.7675L12.1272 16.9692H12.3772ZM12.1667 17.3158L12.0878 17.5439L12.3334 17.5395L12.2545 17.3158C12.2347 17.2648 12.22 17.2119 12.2106 17.1579C12.2018 17.212 12.1871 17.2649 12.1667 17.3158Z" fill="#DD0031"/>
<path d="M13.8508 17.3727L13.7236 17.342C13.649 17.342 13.592 17.3026 13.592 17.2236C13.592 17.1447 13.6359 17.0877 13.785 17.0877C13.8328 17.0782 13.882 17.0782 13.9298 17.0877V17.2192H14.1315V16.9605C14.0166 16.9245 13.8965 16.9082 13.7762 16.9122C13.4736 16.9122 13.3376 17.0701 13.3376 17.2368C13.3376 17.4034 13.4166 17.4912 13.6403 17.5438L13.7587 17.5701C13.9034 17.6052 13.9341 17.6447 13.9341 17.7017C13.9341 17.7587 13.8771 17.8464 13.7455 17.8464C13.6862 17.8588 13.625 17.8588 13.5657 17.8464V17.7061H13.3596V17.9824C13.4843 18.0218 13.6148 18.0396 13.7455 18.035C14.0526 18.035 14.1841 17.8815 14.1841 17.6754C14.1841 17.4692 14.0087 17.4078 13.8508 17.3727Z" fill="#DD0031"/>
<path d="M15.8158 16.9165H15.3992V17.0744H15.5176V17.5788C15.5176 17.7893 15.4211 17.8376 15.2808 17.8419C15.1404 17.8463 15.0615 17.7455 15.0571 17.5876V17.1051H15.1536V16.9472H14.715V17.1051H14.8115V17.649C14.8115 17.8858 14.8948 18.0393 15.2501 18.0349C15.6053 18.0305 15.6887 17.9165 15.6887 17.5963V17.1051H15.8158V16.9165Z" fill="#DD0031"/>
<path fill-rule="evenodd" clip-rule="evenodd" d="M17.2324 17.7458C17.2631 17.8115 17.2894 17.8115 17.3201 17.8115L17.3639 17.8072V17.9782H17.1929C17.1359 17.9782 17.0964 17.9607 17.0131 17.8203L16.8771 17.5966C16.8603 17.5638 16.8263 17.5433 16.7894 17.544H16.7368V17.8247H16.8376V17.9826H16.399V17.8203H16.4955V17.0572H16.3903V16.9036H16.8639C16.9418 16.8921 17.0213 16.9043 17.092 16.9387C17.2023 16.9972 17.2618 17.1207 17.2386 17.2434C17.2155 17.3661 17.1152 17.4595 16.9911 17.4738C17.0438 17.4782 17.0745 17.4958 17.1315 17.5835L17.2324 17.7458ZM16.7279 17.3731H16.8419V17.3687C16.9647 17.3687 17.0261 17.316 17.0218 17.2108C17.0174 17.1055 16.9647 17.0573 16.8288 17.0573H16.7279V17.3731Z" fill="#DD0031"/>
<path d="M18.4605 17.7936L18.1929 17.798L18.1885 17.4822L18.4605 17.4778L18.4561 17.3112L18.1885 17.3155L18.1841 17.0348L18.4429 17.0305L18.4561 17.1927L18.6403 17.1883L18.6271 16.8726L17.842 16.8857V17.0392H17.9605L17.9692 17.798L17.8727 17.8024L17.8771 17.9559L18.6491 17.9471L18.6578 17.6094H18.4692L18.4605 17.7936Z" fill="#DD0031"/>
<path d="M13.9123 6.02638L14.0175 6.05709L13.6535 6.57902C13.6281 6.61645 13.606 6.65608 13.5877 6.69744C13.5921 6.65222 13.5921 6.60669 13.5877 6.56147V5.92112L13.6798 5.94744L13.7237 5.79393L13.2938 5.70182L13.25 5.85095L13.3508 5.87726V6.03954L13.0701 6.44305C13.0456 6.47952 13.0237 6.51762 13.0044 6.55709C13.0044 6.51323 13.0044 6.46498 13.0044 6.42551L12.9649 5.77638L13.0482 5.8027L13.0921 5.64919L12.6535 5.53516L12.6096 5.68428L12.7456 5.70182L12.8508 6.68428L13.0833 6.75007L13.3947 6.31147L13.4254 6.84217L13.6535 6.90358L14.2412 6.1141L14.3245 6.14042L14.3684 5.98691L13.9649 5.87726L13.9123 6.02638Z" fill="#DD0031"/>
<path d="M14.807 6.27168L14.9167 6.30677L14.7149 7.03923L14.6228 7.01291L14.579 7.16203L15.3246 7.36817L15.4255 7.048L15.25 6.99537L15.1886 7.16642L14.9299 7.09624L15.0132 6.79361L15.2763 6.86817L15.3202 6.70589L15.057 6.63572L15.1316 6.36379L15.386 6.43396L15.3553 6.59186L15.5307 6.6401L15.6053 6.3287L14.8465 6.12256L14.807 6.27168Z" fill="#DD0031"/>
<path d="M16.5176 7.53508L16.2632 7.4649L16.465 6.73245L16.5615 6.75438L16.601 6.60525L16.1974 6.49561L16.158 6.64473L16.2501 6.67104L16.0483 7.4035L15.9562 7.37718L15.9167 7.53069L16.6536 7.73683L16.7632 7.4035L16.5834 7.35087L16.5176 7.53508Z" fill="#DD0031"/>
<path d="M17.3334 7.3729C17.2851 7.51749 17.3025 7.67595 17.3809 7.80666C17.4593 7.93737 17.591 8.02726 17.7413 8.05272C17.8548 8.08715 17.9737 8.10053 18.0921 8.0922L18.1886 7.77641L18.0088 7.72378L17.9474 7.91237C17.9043 7.9101 17.8616 7.90273 17.8202 7.89044C17.7197 7.86937 17.6338 7.80484 17.5855 7.71423C17.5372 7.62363 17.5316 7.51628 17.5702 7.42114C17.585 7.32268 17.6419 7.23553 17.7262 7.18245C17.8104 7.12938 17.9136 7.11564 18.0088 7.14483C18.059 7.15867 18.1064 7.18092 18.1492 7.21062L18.1053 7.37728L18.2895 7.42553L18.3685 7.14044C18.2711 7.06804 18.161 7.01449 18.0439 6.98255C17.8979 6.93114 17.737 6.94435 17.6013 7.01886C17.4657 7.09337 17.3683 7.22213 17.3334 7.3729Z" fill="#DD0031"/>
<path fill-rule="evenodd" clip-rule="evenodd" d="M19.0396 7.42434C19.1649 7.34914 19.3162 7.33044 19.456 7.37286C19.602 7.40112 19.7276 7.49342 19.7981 7.62431C19.8687 7.75519 19.8767 7.91084 19.8201 8.0483C19.7786 8.24048 19.6342 8.39396 19.4449 8.44715C19.2556 8.50035 19.0525 8.44454 18.9169 8.30212C18.7814 8.15971 18.7357 7.95402 18.7982 7.7676C18.8265 7.62423 18.9142 7.49954 19.0396 7.42434ZM19.2061 8.27202C19.4122 8.32903 19.5306 8.1843 19.5876 7.98254C19.6403 7.78517 19.6008 7.59658 19.4078 7.54395C19.2148 7.49131 19.0876 7.63605 19.0306 7.83342C18.9736 8.03079 18.9999 8.215 19.2061 8.27202Z" fill="#DD0031"/>
<path d="M21.0789 8.52617C21.0354 8.57587 20.9998 8.63211 20.9737 8.69284C20.9806 8.64337 20.9806 8.59318 20.9737 8.54371L20.8947 7.78056L20.5175 7.67529L20.4737 7.8288L20.5833 7.85512L20.3816 8.58757H20.2895L20.25 8.7367L20.614 8.83757L20.6579 8.68845L20.5482 8.65775L20.7149 8.05249C20.7064 8.10183 20.7064 8.15227 20.7149 8.20161L20.7851 8.88582L20.9912 8.94284L21.3904 8.39898C21.4222 8.36029 21.4488 8.31752 21.4693 8.27178L21.3026 8.86828L21.2149 8.84635L21.1754 8.99547L21.5746 9.10512L21.614 8.95599L21.5175 8.90336L21.7149 8.17091L21.8246 8.20161L21.8684 8.0481L21.4912 7.94722L21.0789 8.52617Z" fill="#DD0031"/>
<path d="M22.3333 8.34199L22.4473 8.3727L22.2456 9.10954L22.1491 9.08322L22.1096 9.23234L22.8508 9.43849L22.9561 9.11831L22.7763 9.07006L22.7149 9.24112L22.4605 9.16656L22.5438 8.86392L22.8026 8.93849L22.8465 8.78059L22.5877 8.70603L22.6623 8.4341L22.9123 8.50427L22.8815 8.65778L23.057 8.71041L23.1315 8.4034L22.3772 8.19287L22.3333 8.34199Z" fill="#DD0031"/>
<path fill-rule="evenodd" clip-rule="evenodd" d="M28.2456 8.35962C28.1543 7.62357 27.9377 6.90857 27.6052 6.24558C26.3421 3.67979 23.4912 1.55699 19.9956 0.565759C17.6587 -0.13088 15.1758 -0.174866 12.8158 0.438566C12.0191 0.654431 11.2571 0.982261 10.5526 1.41225C9.30608 2.14628 8.38089 3.32194 7.96051 4.70611C7.86562 5.04713 7.80537 5.39685 7.78068 5.74997C7.70883 6.84474 7.93785 7.93831 8.44297 8.91225C8.68822 9.40382 8.98208 9.8696 9.32016 10.3026C6.56577 10.6359 4.1184 11.6973 2.47805 13.2851C2.30262 13.4561 2.13156 13.6315 1.97367 13.8158C0.997342 14.8841 0.458737 16.2808 0.464896 17.728C0.52854 19.1738 1.13459 20.5425 2.16226 21.5614C4.06139 23.5614 7.23683 24.7324 10.7149 24.7324H11.114C14.7456 24.6403 18.0307 23.2894 19.886 21.1184C20.8578 20.0464 21.3916 18.6486 21.3816 17.2017C21.3609 16.4807 21.1922 15.7715 20.8859 15.1184C22.5129 15.0378 24.0954 14.5605 25.4956 13.728C26.7486 12.9932 27.6776 11.8119 28.0965 10.421C28.28 9.75016 28.3307 9.04991 28.2456 8.35962ZM12.829 1.83329C13.0483 1.76311 13.2676 1.69732 13.5 1.6403H13.5658C13.7807 1.58767 14.0044 1.5482 14.2237 1.51311L14.386 1.4868C14.6228 1.45171 14.8684 1.42101 15.114 1.40346H15.25C15.4693 1.40346 15.693 1.39469 15.9211 1.37715H16.0219C16.0829 1.5153 16.2016 1.61959 16.3465 1.66223C16.5832 1.73215 16.8367 1.6282 16.9562 1.41223H17.0176C17.1972 1.41223 17.382 1.43842 17.5661 1.46449C17.6202 1.47216 17.6742 1.47982 17.7281 1.4868H17.8377C18.1009 1.52188 18.364 1.57013 18.6316 1.62276L18.8158 1.66223L19.0702 1.72364C19.0248 1.77621 18.9905 1.83736 18.9693 1.90346C18.9154 2.1746 19.0787 2.44167 19.3446 2.51731C19.6105 2.59295 19.8899 2.45182 19.9869 2.19294C20.0065 2.11373 20.0065 2.03091 19.9869 1.95171C20.2281 2.02627 20.4649 2.1096 20.7018 2.19732L20.8728 2.26311C21.114 2.35522 21.3509 2.45609 21.5833 2.56136L21.6579 2.59644L21.9956 2.76311C21.9956 2.77831 21.9868 2.79059 21.9777 2.80332C21.9711 2.81263 21.9642 2.82217 21.9605 2.83329C21.9166 2.96937 21.929 3.11738 21.9949 3.24428C22.0609 3.37117 22.1748 3.46641 22.3114 3.50872C22.5426 3.57946 22.7923 3.48358 22.9167 3.27627C22.9342 3.2865 22.9518 3.29625 22.9693 3.306C23.0044 3.32549 23.0395 3.34498 23.0746 3.36837L23.1798 3.43416C23.3597 3.55258 23.5351 3.67101 23.7018 3.79381L23.829 3.88153C24.0176 4.02188 24.1974 4.16662 24.3728 4.32013L24.4825 4.41223C24.6316 4.5482 24.7807 4.68416 24.9211 4.82013L25.0088 4.90785C25.1667 5.06574 25.3114 5.22802 25.4474 5.3903L23.9825 4.97364C24.0019 4.73327 23.8527 4.51134 23.6228 4.43855C23.3812 4.36352 23.1206 4.47258 23.0044 4.69732L20.9912 4.12715C21.0531 3.86883 20.9144 3.6046 20.6667 3.50872C20.3858 3.42293 20.0883 3.57952 20 3.8596V3.88153L18.0088 3.30258C18.0225 3.28402 18.0328 3.26325 18.0395 3.24118C18.0999 3.05905 18.0572 2.85851 17.928 2.71669C17.7988 2.57487 17.603 2.51386 17.4161 2.55713C17.2291 2.6004 17.0801 2.7412 17.0263 2.92539C17.0222 2.95742 17.0222 2.98985 17.0263 3.02188L14.9869 2.44732C15.0184 2.4092 15.0436 2.36626 15.0614 2.32013C15.1545 2.13264 15.1287 1.90793 14.9955 1.74643C14.8623 1.58494 14.6466 1.51683 14.4448 1.57254C14.2431 1.62825 14.0929 1.79738 14.0614 2.00434C14.053 2.06105 14.053 2.11868 14.0614 2.17539L12.8553 1.83329H12.829ZM4.8553 13.1184C4.65354 13.2368 4.46495 13.364 4.27635 13.4956L4.18863 13.5658L5.50442 13.5351C5.4765 13.4699 5.4616 13.3998 5.46056 13.3289C5.46056 13.0358 5.69816 12.7982 5.99126 12.7982C6.28436 12.7982 6.52196 13.0358 6.52196 13.3289C6.52175 13.3905 6.50985 13.4516 6.48688 13.5087L8.6053 13.4561C8.59026 13.4153 8.58139 13.3724 8.57898 13.3289C8.57898 13.0358 8.81658 12.7982 9.10968 12.7982C9.40278 12.7982 9.64039 13.0358 9.64039 13.3289C9.63707 13.3633 9.62971 13.3972 9.61845 13.4298H10.4035L11.7193 13.3947C11.7168 13.3802 11.7168 13.3654 11.7193 13.3509C11.7215 13.1246 11.8681 12.925 12.0834 12.8552C11.7395 12.6341 11.4072 12.3955 11.0878 12.1403C10.9439 12.3077 10.7108 12.3676 10.5041 12.2902C10.2973 12.2128 10.1609 12.0146 10.1623 11.7938C10.164 11.7263 10.1774 11.6595 10.2018 11.5965H9.9474H9.75442C9.48688 11.6228 9.21933 11.6579 8.95617 11.7017H8.84653C8.60968 11.7412 8.37723 11.7894 8.14477 11.8421H8.08775C8.05231 12.0386 7.90781 12.1977 7.71556 12.2519C7.52331 12.306 7.31703 12.2457 7.18424 12.0965L7.08775 12.1316C6.87284 12.1973 6.66231 12.2719 6.45617 12.3509L6.32898 12.3991C6.09214 12.4912 5.87284 12.5877 5.65354 12.693L5.50881 12.7675C5.30705 12.8684 5.10968 12.9693 4.92109 13.0833L4.8553 13.1184ZM13.0745 23.2061V23.1797C13.0745 22.8866 12.8369 22.649 12.5438 22.649C12.2507 22.649 12.0131 22.8866 12.0131 23.1797C12.0133 23.2385 12.0252 23.2967 12.0482 23.3508C11.7281 23.3815 11.4035 23.4034 11.0745 23.4122C10.7456 23.421 10.2982 23.4122 9.91227 23.3859C9.94343 23.3218 9.95848 23.251 9.95613 23.1797C9.95613 22.8866 9.71852 22.649 9.42543 22.649C9.13233 22.649 8.89472 22.8866 8.89472 23.1797C8.89733 23.2171 8.9047 23.2539 8.91665 23.2894C7.55467 23.1186 6.2342 22.7056 5.01753 22.0701C5.15233 21.9894 5.24402 21.8526 5.26753 21.6973L7.34209 21.6447C7.37294 21.918 7.60761 22.1225 7.88266 22.1157C8.1577 22.1088 8.3819 21.8929 8.39911 21.6183L10.4649 21.5657C10.4629 21.5832 10.4629 21.6009 10.4649 21.6183C10.4899 21.894 10.721 22.105 10.9978 22.105C11.2746 22.105 11.5057 21.894 11.5307 21.6183C11.5327 21.5921 11.5327 21.5657 11.5307 21.5394L13.6228 21.4911C13.6098 21.5341 13.601 21.5781 13.5965 21.6227C13.5965 21.9158 13.8341 22.1534 14.1272 22.1534C14.4203 22.1534 14.6579 21.9158 14.6579 21.6227C14.6566 21.5687 14.6462 21.5154 14.6272 21.4648L16.7588 21.4078C16.7308 21.4761 16.7159 21.549 16.7149 21.6227C16.7161 21.7303 16.7515 21.8347 16.8158 21.921C15.6504 22.5579 14.3854 22.9925 13.0745 23.2061ZM20.0658 17.7281V17.6053L20.0263 17.6228C20.0526 17.372 20.0526 17.1192 20.0263 16.8684V16.7456C20.0145 16.6615 19.9984 16.5781 19.9781 16.4956C19.9739 16.4725 19.9686 16.4564 19.9624 16.4372L19.9624 16.4372C19.9556 16.4164 19.9477 16.3919 19.9386 16.3509C19.921 16.2719 19.8991 16.1974 19.8772 16.1229L19.8772 16.1228L19.8202 15.9737L19.8056 15.9346C19.7819 15.871 19.7549 15.7985 19.7368 15.7588C19.7298 15.7434 19.7237 15.7289 19.7175 15.7141L19.7175 15.7141C19.7043 15.6827 19.6906 15.6501 19.6667 15.6053C19.6316 15.5395 19.5877 15.4561 19.5614 15.4035C19.5469 15.3745 19.5271 15.3416 19.5093 15.3119C19.4948 15.2877 19.4816 15.2658 19.4737 15.25C19.462 15.2266 19.4464 15.2032 19.4308 15.1798C19.423 15.1681 19.4152 15.1564 19.4079 15.1447C18.2692 15.0923 17.1403 14.9083 16.0438 14.5965L15.9649 14.5746L2.78508 14.9123L2.70175 14.9649C2.6817 14.9916 2.66731 15.0127 2.65168 15.0356C2.63654 15.0578 2.62023 15.0816 2.59648 15.114C2.56191 15.1612 2.52959 15.2106 2.49791 15.259C2.48538 15.2781 2.47295 15.2971 2.46052 15.3158L2.36403 15.4693C2.32455 15.5351 2.28946 15.6053 2.25438 15.6754C2.22374 15.7243 2.19733 15.7756 2.17543 15.8289C2.14034 15.8991 2.10087 15.9868 2.07894 16.0395C2.05701 16.0921 2.04385 16.1272 2.01753 16.1974L2.01187 16.2124C1.9864 16.2803 1.95521 16.3633 1.94297 16.4123C1.93782 16.4329 1.9293 16.4528 1.92084 16.4726C1.90771 16.5034 1.89473 16.5338 1.89473 16.5658L1.8421 16.7938C1.83941 16.8086 1.83837 16.8205 1.83734 16.8323C1.835 16.859 1.83271 16.8851 1.81139 16.943C1.78069 17.0263 1.78069 17.1096 1.78069 17.193C1.77831 17.2353 1.77831 17.2778 1.78069 17.3202C1.77405 17.4458 1.77405 17.5717 1.78069 17.6974C1.78893 17.8238 1.80356 17.9496 1.82455 18.0746C1.82974 18.1144 1.83706 18.1539 1.84648 18.193C1.85144 18.226 1.85888 18.2584 1.86624 18.2905C1.87841 18.3435 1.89034 18.3954 1.89034 18.4474L1.92982 18.5921C1.94769 18.6678 1.96965 18.7425 1.9956 18.8158C2.0105 18.8664 2.02807 18.9162 2.04824 18.9649C2.07455 19.0395 2.10964 19.1272 2.13157 19.1798C2.14253 19.2061 2.1546 19.2313 2.16666 19.2566C2.17872 19.2818 2.19078 19.307 2.20175 19.3333L2.30701 19.5395L2.39473 19.6886L2.52192 19.8903L2.61841 20.0351L2.76753 20.2368L2.87718 20.3684L2.94297 20.443L19.0833 20.0307L19.1447 19.9561L19.25 19.807C19.2982 19.7412 19.3421 19.6754 19.386 19.6053L19.4781 19.4561C19.4886 19.4374 19.4991 19.419 19.5096 19.4007C19.5383 19.3505 19.5664 19.3014 19.5921 19.25L19.671 19.0965L19.7631 18.8816C19.7862 18.8315 19.8067 18.7803 19.8246 18.7281C19.854 18.6566 19.8789 18.5834 19.8991 18.5088C19.9178 18.4585 19.9339 18.4072 19.9474 18.3553C19.9562 18.3252 19.9615 18.2901 19.9666 18.2558C19.9743 18.2051 19.9817 18.156 20 18.1272C20.0147 18.104 20.0143 18.0889 20.0138 18.0703C20.0132 18.0501 20.0125 18.0257 20.0307 17.9824C20.0658 17.8991 20.0658 17.8114 20.0658 17.7281ZM22.2982 13.5526C22.1315 13.5877 21.9649 13.6228 21.7938 13.6491L21.6359 13.6754C21.3947 13.7105 21.1535 13.7412 20.9035 13.7588H20.7719C20.6617 13.7588 20.5536 13.7641 20.4439 13.7695L20.4439 13.7695C20.331 13.7751 20.2166 13.7807 20.0965 13.7807H19.9473C19.693 13.7807 19.4342 13.7807 19.1754 13.75H19.0044L18.3772 13.6842C18.4376 13.5021 18.3949 13.3015 18.2657 13.1597C18.1364 13.0179 17.9407 12.9569 17.7538 13.0002C17.5668 13.0434 17.4178 13.1842 17.364 13.3684C17.3575 13.4164 17.3575 13.4651 17.364 13.5132L17.2149 13.4825C16.9473 13.4254 16.6754 13.3596 16.4079 13.2851L16.2544 13.2325L16.1589 13.2034L16.1589 13.2033C15.974 13.1471 15.786 13.0899 15.614 13.0263L15.4386 12.9649L15.3289 12.9211C15.3688 12.8744 15.4 12.8209 15.421 12.7632C15.4997 12.5 15.3646 12.2204 15.1096 12.1184L15.0701 12.0965H15.0219C14.755 12.0381 14.4875 12.1918 14.4035 12.4518C14.4013 12.4795 14.4013 12.5074 14.4035 12.5351L13.9649 12.3158L13.8158 12.2368C13.6282 12.1395 13.4525 12.0361 13.2668 11.9269L13.1447 11.8553L13.0175 11.7763L12.7456 11.6053L12.4123 11.4035L12.307 11.3202C12.1052 11.1769 11.9123 11.0307 11.728 10.8816L11.6052 10.7719C11.4342 10.6272 11.2675 10.4781 11.114 10.3333L11.0614 10.2807L11.0307 10.25C11.0557 10.2419 11.0793 10.23 11.1008 10.2149C11.2139 10.1697 11.3072 10.0857 11.364 9.97807L12.3859 10.2675L13.3596 10.5439C13.2809 10.8248 13.4449 11.1165 13.7258 11.1952C14.0068 11.2739 14.2984 11.1099 14.3772 10.8289L16.3684 11.3904C16.3562 11.4043 16.3472 11.4208 16.3421 11.4386C16.2746 11.6229 16.3144 11.8294 16.4455 11.9755C16.5766 12.1215 16.7776 12.1833 16.9681 12.1361C17.1586 12.0889 17.3075 11.9404 17.3552 11.75C17.3576 11.7223 17.3576 11.6944 17.3552 11.6667L17.4298 11.6886L19.3772 12.2368C19.3484 12.2737 19.3262 12.3153 19.3114 12.3596C19.2428 12.6334 19.4004 12.913 19.6702 12.996C19.94 13.0789 20.2275 12.9361 20.3245 12.6711C20.3331 12.6173 20.3331 12.5625 20.3245 12.5088L22.3947 13.0702C22.3464 13.1255 22.3092 13.1895 22.2851 13.2588C22.2607 13.3559 22.2652 13.4581 22.2982 13.5526ZM26.9561 9.31139V9.16665V9.15788C26.9586 9.11276 26.9439 9.06333 26.9309 9.01943C26.9211 8.98654 26.9122 8.95675 26.9122 8.9342V8.7763V8.54823V8.39034L26.8727 8.16665L26.8333 7.9956C26.8268 7.96808 26.8167 7.93996 26.8066 7.91168C26.7893 7.86335 26.7719 7.81457 26.7719 7.76753C26.7583 7.70935 26.7408 7.65219 26.7192 7.59648C26.6973 7.52192 26.671 7.44736 26.6403 7.36841L26.5745 7.19736L26.535 7.11402L10.9912 2.72806L10.9166 2.79385L10.7719 2.9035L10.5833 3.05262L10.4473 3.17104L10.2806 3.33332L10.1578 3.46051L10.0087 3.63157L9.89906 3.76315C9.8669 3.80408 9.83863 3.84502 9.81037 3.88595C9.79624 3.90642 9.7821 3.92689 9.76748 3.94736L9.67976 4.07016C9.6359 4.13595 9.58327 4.22806 9.56134 4.27192C9.55232 4.28996 9.54404 4.30281 9.53497 4.31688C9.52201 4.337 9.50743 4.35961 9.48678 4.4035C9.46175 4.45668 9.43003 4.52996 9.40753 4.58192C9.39848 4.60281 9.39093 4.62025 9.3859 4.63157C9.38006 4.64472 9.37226 4.65788 9.36446 4.67104C9.34887 4.69736 9.33327 4.72367 9.33327 4.74999C9.28503 4.86841 9.24555 4.98683 9.21046 5.10525C9.17594 5.22791 9.14812 5.35237 9.12713 5.47806C9.12926 5.5175 9.12926 5.55703 9.12713 5.59648C9.10082 5.67981 9.10082 5.75876 9.10082 5.83771C9.09863 5.87715 9.09863 5.91668 9.10082 5.95613V6.19736V6.35086V6.58332V6.74999L9.14029 6.97806C9.14426 6.99526 9.14903 7.01207 9.15376 7.02872C9.16469 7.06724 9.17538 7.10491 9.17538 7.14472L9.23678 7.37718L9.30257 7.54385C9.32889 7.62279 9.36397 7.71929 9.3859 7.7763C9.39441 7.79843 9.40227 7.8199 9.40997 7.84097C9.42211 7.87417 9.43389 7.90638 9.44731 7.93858C9.46231 7.96846 9.47549 7.99922 9.48678 8.03069L14.8377 9.54385L25.0482 12.4386L25.1227 12.386L25.2763 12.2719L25.4605 12.1228L25.5964 12.0044C25.6534 11.9517 25.7105 11.8991 25.7631 11.8421C25.8062 11.8019 25.8472 11.7594 25.8859 11.7149C25.9385 11.6623 25.9868 11.6053 26.035 11.5483L26.035 11.5482C26.074 11.5049 26.1106 11.4595 26.1447 11.4123C26.1929 11.3553 26.2456 11.2807 26.2763 11.2324C26.2932 11.2058 26.3061 11.1872 26.3217 11.1648C26.3343 11.1466 26.3487 11.126 26.3684 11.0965C26.3977 11.0525 26.429 10.9967 26.4544 10.9515C26.4669 10.9291 26.4781 10.9093 26.4868 10.8947C26.4903 10.8889 26.4935 10.8836 26.4964 10.8787C26.516 10.8463 26.5271 10.8278 26.5613 10.7631C26.5862 10.7163 26.6075 10.6676 26.6287 10.6194C26.6412 10.591 26.6536 10.5627 26.6666 10.5351L26.7192 10.4167C26.7653 10.299 26.8048 10.179 26.8377 10.057C26.8741 9.93602 26.9034 9.813 26.9254 9.68858V9.57016C26.9402 9.48451 26.9504 9.39813 26.9561 9.31139Z" fill="#DD0031"/>
</svg>
