<svg width="18" height="18" viewBox="0 0 18 18" fill="none" xmlns="http://www.w3.org/2000/svg">
<path fill-rule="evenodd" clip-rule="evenodd" d="M13.013 16.9219C13.5464 17.5183 14.2872 17.8226 15.0311 17.8226C15.6728 17.8222 16.3174 17.5958 16.8324 17.1358L17.1 16.8959C17.6372 16.4165 17.955 15.754 17.9955 15.0308C18.036 14.3077 17.7944 13.6137 17.3143 13.0768L13.7697 9.11093C14.1362 8.03439 14.2321 6.88204 14.0459 5.75566C13.5398 2.69773 10.9333 0.287811 7.84836 0.0257721C5.73301 -0.155266 3.68724 0.623926 2.23582 2.16016C0.784397 3.69639 0.124974 5.78993 0.426474 7.90423C0.845666 10.8417 3.00601 13.101 5.93067 13.6597C7.23428 13.9086 8.55555 13.7837 9.77609 13.3001L13.013 16.9219ZM10.3016 12.3295C10.2008 12.217 10.0586 12.1564 9.9142 12.1564L8.27902 12.6526C7.76126 12.7462 7.23195 12.7693 6.70221 12.7208L6.70237 12.7155L6.70249 12.7055C6.70249 12.4708 6.5121 12.2808 6.27741 12.2808C6.08453 12.2808 5.92181 12.4092 5.86995 12.5852C3.70171 12.0751 2.0699 10.4462 1.5596 8.30996C1.6971 8.23955 1.79125 8.09641 1.79125 7.93137C1.79125 7.71676 1.63159 7.53902 1.42445 7.5106C1.37228 6.99588 1.38662 6.48441 1.46408 5.98694C1.65161 5.9427 1.79125 5.7742 1.79125 5.5732C1.79125 5.43865 1.7285 5.3186 1.63063 5.24075C1.88705 4.36535 2.34726 3.55453 2.99078 2.87323C3.81041 2.00574 4.85382 1.42429 5.98923 1.17584C6.06414 1.24187 6.16248 1.28193 6.27014 1.28193C6.42654 1.28193 6.56311 1.19738 6.63682 1.07152C7.006 1.0329 7.38194 1.02859 7.76044 1.06008C7.97123 1.07802 8.17938 1.10778 8.38419 1.14868C8.4617 1.23072 8.5715 1.28193 8.69322 1.28193L8.69701 1.28191L8.7008 1.28193C8.749 1.28193 8.79534 1.2739 8.83854 1.2591C9.14161 1.34609 9.4357 1.45769 9.71829 1.59157C9.55244 1.64946 9.43353 1.80732 9.43353 1.99269C9.43353 2.22738 9.62357 2.41776 9.85827 2.41776C10.093 2.41776 10.2833 2.22738 10.2833 1.99269C10.2833 1.95747 10.279 1.92325 10.2709 1.89052C11.094 2.394 11.7907 3.09576 12.2864 3.92679C12.0628 3.93918 11.8852 4.12452 11.8852 4.35086C11.8852 4.58555 12.0756 4.77594 12.3102 4.77594C12.443 4.77594 12.5615 4.715 12.6393 4.6196C12.8163 5.03341 12.9461 5.47091 13.0213 5.92527C13.1927 6.96136 13.0917 7.98157 12.7211 8.95927C12.6734 8.77709 12.5076 8.64248 12.3102 8.64248C12.0756 8.64248 11.8852 8.83286 11.8852 9.06721C11.8852 9.3019 12.0756 9.49228 12.3102 9.49228C12.4531 9.49228 12.5795 9.42171 12.6565 9.31352C12.6775 9.44944 12.7495 9.58014 12.8548 9.66823L12.8725 9.68287C12.9017 9.70677 12.9307 9.73056 12.9566 9.75962L13.2188 10.0531C13.1412 10.13 13.0931 10.2367 13.0931 10.3544C13.0931 10.5891 13.2835 10.7795 13.5182 10.7795C13.619 10.7795 13.7115 10.7444 13.7843 10.6858L14.364 11.3344C14.3466 11.3807 14.3372 11.4308 14.3372 11.4832C14.3372 11.7179 14.5275 11.9079 14.7622 11.9079C14.7978 11.9079 14.8323 11.9036 14.8653 11.8953L15.5478 12.659C15.5461 12.6743 15.5453 12.6898 15.5453 12.7055C15.5453 12.9399 15.7348 13.1297 15.969 13.1303L16.5399 13.7691C16.8349 14.099 16.9837 14.5265 16.9588 14.9727C16.9339 15.4185 16.7383 15.827 16.4081 16.1219L16.1401 16.3615C15.4551 16.9742 14.3997 16.9146 13.787 16.2296L11.0144 13.1271C11.0314 13.1292 11.0487 13.1303 11.0662 13.1303C11.3009 13.1303 11.491 12.9402 11.491 12.7055C11.491 12.4708 11.3009 12.2808 11.0662 12.2808C10.8315 12.2808 10.6412 12.4708 10.6412 12.7055L10.6412 12.7095L10.3016 12.3295ZM7.51411 2.41776C7.7488 2.41776 7.93884 2.22738 7.93884 1.99269C7.93884 1.75834 7.7488 1.56796 7.51411 1.56796C7.27942 1.56796 7.08904 1.75834 7.08904 1.99269C7.08904 2.22738 7.27942 2.41776 7.51411 2.41776ZM5.48721 1.99269C5.48721 2.22738 5.29682 2.41776 5.06213 2.41776C4.82744 2.41776 4.6374 2.22738 4.6374 1.99269C4.6374 1.75834 4.82744 1.56796 5.06213 1.56796C5.29682 1.56796 5.48721 1.75834 5.48721 1.99269ZM3.03523 4.35086C3.03523 4.58555 2.84484 4.77594 2.61015 4.77594C2.37546 4.77594 2.18542 4.58555 2.18542 4.35086C2.18542 4.11651 2.37546 3.92613 2.61015 3.92613C2.84484 3.92613 3.03523 4.11651 3.03523 4.35086ZM5.84508 3.21101C4.89204 3.54353 4.1155 4.25586 3.69769 5.1658C3.52173 5.21776 3.39343 5.38064 3.39343 5.5732C3.39343 5.66381 3.42175 5.74781 3.47004 5.8168C3.39979 6.10108 3.36252 6.39822 3.36252 6.70391C3.36252 7.03561 3.40642 7.35724 3.48872 7.66332C3.42914 7.73645 3.39343 7.82978 3.39343 7.93137C3.39343 8.14287 3.54776 8.31839 3.75003 8.35101C4.18266 9.21691 4.94522 9.89041 5.8719 10.2057C5.85455 10.252 5.84506 10.3021 5.84506 10.3544C5.84506 10.5891 6.03545 10.7795 6.27014 10.7795C6.49506 10.7795 6.67896 10.6047 6.69389 10.3835C6.81439 10.3954 6.93656 10.4015 7.06013 10.4015C7.4958 10.4015 7.91409 10.3258 8.30256 10.1869C8.28041 10.2383 8.26814 10.295 8.26814 10.3544C8.26814 10.5891 8.45852 10.7795 8.69322 10.7795L8.69701 10.7795L8.7008 10.7795C8.93549 10.7795 9.12587 10.5891 9.12587 10.3544L9.12586 10.3509L9.12587 10.3474C9.12587 10.1608 9.00555 10.0024 8.83831 9.94533C9.11212 9.79456 9.36488 9.6101 9.59098 9.39759C9.66395 9.4568 9.75695 9.49228 9.85827 9.49228C10.093 9.49228 10.2833 9.3019 10.2833 9.06721C10.2833 8.94061 10.2278 8.82685 10.1397 8.749C10.5303 8.16289 10.7581 7.4595 10.7581 6.70391C10.7581 5.9511 10.532 5.25014 10.1442 4.66534C10.2297 4.58758 10.2833 4.47546 10.2833 4.35086C10.2833 4.11651 10.093 3.92613 9.85827 3.92613C9.75982 3.92613 9.66923 3.95963 9.59723 4.01582C9.4073 3.83646 9.19844 3.67696 8.97398 3.54066C9.06684 3.46267 9.12587 3.34572 9.12587 3.21503C9.12587 2.98068 8.93549 2.79029 8.7008 2.79029L8.69701 2.79031L8.69322 2.79029C8.4607 2.79029 8.27167 2.97717 8.26819 3.20852C7.88946 3.07727 7.48298 3.00595 7.06013 3.00595C6.92212 3.00595 6.78586 3.01355 6.65173 3.02835C6.58264 2.88744 6.43778 2.79029 6.27014 2.79029C6.03679 2.79029 5.84724 2.97851 5.84508 3.21101ZM3.81816 3.6401C4.05285 3.6401 4.24324 3.44972 4.24324 3.21503C4.24324 2.98068 4.05285 2.79029 3.81816 2.79029C3.58347 2.79029 3.39343 2.98068 3.39343 3.21503C3.39343 3.44972 3.58347 3.6401 3.81816 3.6401ZM3.03523 6.70903C3.03523 6.94373 2.84484 7.13411 2.61015 7.13411C2.37546 7.13411 2.18542 6.94373 2.18542 6.70903C2.18542 6.47469 2.37546 6.2843 2.61015 6.2843C2.84484 6.2843 3.03523 6.47469 3.03523 6.70903ZM2.61015 9.49228C2.84484 9.49228 3.03523 9.3019 3.03523 9.06721C3.03523 8.83286 2.84484 8.64248 2.61015 8.64248C2.37546 8.64248 2.18542 8.83286 2.18542 9.06721C2.18542 9.3019 2.37546 9.49228 2.61015 9.49228ZM4.24324 10.3544C4.24324 10.5891 4.05285 10.7795 3.81816 10.7795C3.58347 10.7795 3.39343 10.5891 3.39343 10.3544C3.39343 10.1201 3.58347 9.92972 3.81816 9.92972C4.05285 9.92972 4.24324 10.1201 4.24324 10.3544ZM11.0662 3.6401C11.3009 3.6401 11.491 3.44972 11.491 3.21503C11.491 2.98068 11.3009 2.79029 11.0662 2.79029C10.8315 2.79029 10.6412 2.98068 10.6412 3.21503C10.6412 3.44972 10.8315 3.6401 11.0662 3.6401ZM12.735 6.70903C12.735 6.94373 12.5449 7.13411 12.3102 7.13411C12.0756 7.13411 11.8852 6.94373 11.8852 6.70903C11.8852 6.47469 12.0756 6.2843 12.3102 6.2843C12.5449 6.2843 12.735 6.47469 12.735 6.70903ZM11.0662 5.99828C11.3009 5.99828 11.491 5.80789 11.491 5.5732C11.491 5.33885 11.3009 5.14847 11.0662 5.14847C10.8315 5.14847 10.6412 5.33885 10.6412 5.5732C10.6412 5.80789 10.8315 5.99828 11.0662 5.99828ZM11.491 7.93137C11.491 8.16606 11.3009 8.35645 11.0662 8.35645C10.8315 8.35645 10.6412 8.16606 10.6412 7.93137C10.6412 7.69703 10.8315 7.50664 11.0662 7.50664C11.3009 7.50664 11.491 7.69703 11.491 7.93137ZM11.491 10.3544C11.491 10.5891 11.3009 10.7795 11.0662 10.7795C10.8315 10.7795 10.6412 10.5891 10.6412 10.3544C10.6412 10.1201 10.8315 9.92972 11.0662 9.92972C11.3009 9.92972 11.491 10.1201 11.491 10.3544ZM12.3102 11.9079C12.5449 11.9079 12.735 11.7179 12.735 11.4832C12.735 11.2485 12.5449 11.0585 12.3102 11.0585C12.0756 11.0585 11.8852 11.2485 11.8852 11.4832C11.8852 11.7179 12.0756 11.9079 12.3102 11.9079ZM10.2833 11.4832C10.2833 11.7179 10.093 11.9079 9.85827 11.9079C9.62357 11.9079 9.43353 11.7179 9.43353 11.4832C9.43353 11.2485 9.62357 11.0585 9.85827 11.0585C10.093 11.0585 10.2833 11.2485 10.2833 11.4832ZM12.735 13.8414C12.735 14.0761 12.5449 14.2661 12.3102 14.2661C12.0756 14.2661 11.8852 14.0761 11.8852 13.8414C11.8852 13.6067 12.0756 13.4166 12.3102 13.4166C12.5449 13.4166 12.735 13.6067 12.735 13.8414ZM14.7622 14.2661C14.9969 14.2661 15.187 14.0761 15.187 13.8414C15.187 13.6067 14.9969 13.4166 14.7622 13.4166C14.5275 13.4166 14.3372 13.6067 14.3372 13.8414C14.3372 14.0761 14.5275 14.2661 14.7622 14.2661ZM13.943 12.7055C13.943 12.9402 13.7529 13.1303 13.5182 13.1303C13.2835 13.1303 13.0931 12.9402 13.0931 12.7055C13.0931 12.4708 13.2835 12.2808 13.5182 12.2808C13.7529 12.2808 13.943 12.4708 13.943 12.7055ZM14.7622 16.6243C14.9969 16.6243 15.187 16.4342 15.187 16.1995C15.187 15.9648 14.9969 15.7748 14.7622 15.7748C14.5275 15.7748 14.3372 15.9648 14.3372 16.1995C14.3372 16.4342 14.5275 16.6243 14.7622 16.6243ZM16.3951 15.0637C16.3951 15.2984 16.2047 15.4884 15.97 15.4884C15.7353 15.4884 15.5453 15.2984 15.5453 15.0637C15.5453 14.829 15.7353 14.639 15.97 14.639C16.2047 14.639 16.3951 14.829 16.3951 15.0637ZM13.5182 15.4884C13.7529 15.4884 13.943 15.2984 13.943 15.0637C13.943 14.829 13.7529 14.639 13.5182 14.639C13.2835 14.639 13.0931 14.829 13.0931 15.0637C13.0931 15.2984 13.2835 15.4884 13.5182 15.4884ZM7.94646 11.4832C7.94646 11.7179 7.75607 11.9079 7.52138 11.9079C7.28669 11.9079 7.09665 11.7179 7.09665 11.4832C7.09665 11.2485 7.28669 11.0585 7.52138 11.0585C7.75607 11.0585 7.94646 11.2485 7.94646 11.4832ZM5.06957 11.9079C5.30427 11.9079 5.4943 11.7179 5.4943 11.4832C5.4943 11.2485 5.30427 11.0585 5.06957 11.0585C4.83488 11.0585 4.6445 11.2485 4.6445 11.4832C4.6445 11.7179 4.83488 11.9079 5.06957 11.9079ZM7.06013 4.04441C5.59382 4.04441 4.40098 5.23726 4.40098 6.70391C4.40098 8.17022 5.59382 9.36306 7.06013 9.36306C8.52644 9.36306 9.71963 8.17022 9.71963 6.70391C9.71963 5.23726 8.52644 4.04441 7.06013 4.04441Z" fill="#DD0031"/>
</svg>
