<svg width="17" height="24" viewBox="0 0 17 24" fill="none" xmlns="http://www.w3.org/2000/svg">
<path fill-rule="evenodd" clip-rule="evenodd" d="M15.9453 6.63572C15.9656 6.75749 15.9874 6.88742 15.9874 7.04531C16.0003 7.21674 16.009 7.38817 16.0176 7.56388C16.0354 8.60354 15.9236 9.6414 15.6846 10.6539C14.5486 15.5493 12.1154 20.0556 8.636 23.7082C8.51486 23.833 8.34803 23.904 8.1733 23.9053C7.99727 23.9042 7.82903 23.8332 7.70627 23.7082C4.24272 20.0489 1.82476 15.5417 0.700867 10.6496C0.351162 9.2485 0.269028 7.79492 0.458705 6.36388C1.02519 2.48102 3.70195 0.428168 8.1906 0.428168C9.79719 0.369229 11.3917 0.72515 12.8176 1.46102C15.0576 2.79817 15.7322 5.18103 15.9225 6.48817C15.9288 6.53689 15.9369 6.58561 15.9453 6.63572ZM8.19715 22.312C8.19932 22.3144 8.20149 22.3168 8.20366 22.3192H8.19069C8.19284 22.3168 8.19499 22.3144 8.19715 22.312ZM4.9388 17.832C5.86096 19.436 6.95326 20.9379 8.19715 22.312C9.44627 20.9209 10.5402 19.4002 11.4599 17.7763C11.3862 17.8189 11.3029 17.8425 11.2177 17.8449C10.9334 17.8464 10.6999 17.6227 10.6918 17.3411C10.6837 17.0595 10.904 16.8229 11.1879 16.8085C11.4718 16.794 11.7155 17.0068 11.7366 17.2878C11.9442 16.9149 12.1474 16.5378 12.3464 16.1092C12.2747 16.0236 12.235 15.9161 12.2339 15.8049C12.2337 15.529 12.4531 15.3021 12.7312 15.2906C13.256 14.1215 13.6967 12.917 14.0501 11.6863C13.8791 11.6 13.7708 11.4265 13.7691 11.2363C13.7691 10.9499 14.0033 10.7178 14.2923 10.7178C14.3057 10.6627 14.32 10.6076 14.3343 10.5522C14.3524 10.4825 14.3706 10.4122 14.3874 10.3406C14.5279 9.74614 14.619 9.14126 14.6599 8.53204C14.5637 8.6436 14.4231 8.70781 14.275 8.70776C14.0345 8.69815 13.8323 8.52593 13.7865 8.29176C13.7407 8.05759 13.8633 7.82294 14.0828 7.72498C14.3022 7.62701 14.5608 7.69145 14.7074 7.88061C14.7074 7.84791 14.7079 7.81804 14.7084 7.78803C14.7094 7.72757 14.7103 7.66653 14.7074 7.58061C14.7031 7.45204 14.6988 7.33633 14.6815 7.15204C14.6744 7.07595 14.6635 7.0057 14.6533 6.93919C14.6387 6.84462 14.6253 6.75759 14.6253 6.67204C14.5769 6.33808 14.5076 6.00744 14.4177 5.68204C14.3804 5.68611 14.3426 5.68611 14.3053 5.68204C14.0664 5.68353 13.8573 5.52314 13.7989 5.29354C13.7404 5.06393 13.8477 4.82446 14.0588 4.71347C13.8518 4.26825 13.5825 3.85417 13.2588 3.48347C13.2789 3.53412 13.2906 3.58767 13.2934 3.64204C13.2934 3.85178 13.1659 4.04087 12.9704 4.12114C12.7749 4.2014 12.5498 4.15704 12.4002 4.00873C12.2505 3.86042 12.2057 3.63737 12.2867 3.44359C12.3677 3.24982 12.5585 3.12347 12.7701 3.12347C12.8292 3.12615 12.8875 3.13771 12.9431 3.15776C12.7057 2.93488 12.4447 2.73803 12.1647 2.57061C12.0145 2.48723 11.86 2.41142 11.702 2.34347C11.6139 2.52234 11.4315 2.63673 11.2307 2.63918C10.9417 2.63918 10.7074 2.40701 10.7074 2.12061C10.712 2.08264 10.7207 2.04528 10.7334 2.00918C9.99683 1.82271 9.24056 1.72345 8.48042 1.71347C8.60742 1.80744 8.68264 1.95497 8.68366 2.11204C8.68366 2.39844 8.4494 2.63061 8.16042 2.63061C7.87144 2.63061 7.63718 2.39844 7.63718 2.11204C7.63717 1.95572 7.71072 1.80833 7.83609 1.71347C7.08311 1.73481 6.33542 1.8456 5.60907 2.04347C5.6115 2.07628 5.6115 2.10923 5.60907 2.14204C5.601 2.37493 5.43595 2.57334 5.20681 2.62559C4.97767 2.67784 4.74172 2.57087 4.63177 2.3649C4.18533 2.56379 3.77255 2.82978 3.40799 3.15347C3.45391 3.13692 3.50194 3.12682 3.55069 3.12347C3.83967 3.12347 4.07393 3.35564 4.07393 3.64204C4.07393 3.92844 3.83967 4.16061 3.55069 4.16061C3.26171 4.16061 3.02745 3.92844 3.02745 3.64204C3.02875 3.59346 3.03901 3.54553 3.05772 3.50061C2.72698 3.86051 2.45554 4.26982 2.25339 4.71347C2.41381 4.79903 2.51722 4.96169 2.52582 5.14204C2.52582 5.42844 2.29156 5.66061 2.00258 5.66061C1.9739 5.66466 1.94478 5.66466 1.91609 5.66061C1.83463 5.95054 1.77251 6.24546 1.73015 6.54347C1.67309 6.96963 1.64708 7.39932 1.65231 7.82919C1.82267 7.67409 2.07558 7.64827 2.27427 7.76568C2.47295 7.8831 2.57026 8.11589 2.51357 8.33817C2.45688 8.56044 2.25965 8.71944 2.02853 8.72919C1.90961 8.72786 1.7949 8.68542 1.7042 8.60919C1.74886 9.20102 1.83995 9.78851 1.97663 10.3663C1.99177 10.4306 2.00799 10.4938 2.0242 10.557C2.04042 10.6203 2.05663 10.6835 2.07177 10.7478C2.29038 10.7613 2.47586 10.9117 2.53267 11.1213C2.58947 11.331 2.50492 11.5532 2.32258 11.6735C2.67972 12.92 3.12478 14.1402 3.65447 15.3249C3.9039 15.3631 4.08772 15.5762 4.08691 15.8263C4.08363 15.9159 4.0568 16.0031 4.00907 16.0792C4.20366 16.4778 4.39826 16.8635 4.6015 17.2278C4.65227 16.9957 4.85916 16.8298 5.0988 16.8292C5.38778 16.8292 5.62204 17.0614 5.62204 17.3478C5.62204 17.6342 5.38778 17.8663 5.0988 17.8663C5.04394 17.8636 4.9899 17.852 4.9388 17.832Z" fill="#DD0031"/>
<path fill-rule="evenodd" clip-rule="evenodd" d="M4.57069 11.3548C4.52285 11.1111 4.65763 10.8682 4.89101 10.7777C4.56179 10.4378 4.28625 10.0506 4.07371 9.62915C4.07787 9.66331 4.07787 9.69784 4.07371 9.732C4.07544 9.9429 3.94812 10.1338 3.75167 10.2149C3.55523 10.296 3.32879 10.2511 3.17895 10.1014C3.0291 9.95161 2.9857 9.72683 3.06916 9.53283C3.15263 9.33882 3.34634 9.21424 3.55911 9.21772C3.70773 9.21931 3.84826 9.28503 3.94398 9.39772C3.68498 8.8142 3.55098 8.18377 3.55046 7.54629V7.20772C3.26149 7.20772 3.02722 6.97555 3.02722 6.68915C3.02722 6.40275 3.26149 6.17057 3.55046 6.17057C3.61591 6.17008 3.68074 6.18322 3.74074 6.20915C4.11952 4.99099 4.99194 3.98356 6.14938 3.42772C6.23495 3.24342 6.42036 3.12481 6.62506 3.12343C6.69023 3.12551 6.75457 3.13855 6.81533 3.162C7.25136 3.03096 7.70455 2.96453 8.16019 2.96486C8.61444 2.96419 9.06626 3.03064 9.50073 3.162C9.56288 3.13815 9.62871 3.1251 9.69533 3.12343C9.89943 3.12324 10.0844 3.24262 10.1667 3.42772C11.3266 3.97848 12.2025 4.98326 12.584 6.20057C12.6455 6.17466 12.7117 6.16153 12.7786 6.162C13.0676 6.162 13.3018 6.39418 13.3018 6.68057C13.3018 6.96697 13.0676 7.19915 12.7786 7.19915V7.53772C12.7793 8.17577 12.6437 8.80674 12.3807 9.38915C12.4781 9.27626 12.6201 9.21063 12.7699 9.20915C13.0579 9.21148 13.2908 9.44229 13.2932 9.72772C13.2932 10.0141 13.0589 10.2463 12.7699 10.2463C12.4809 10.2463 12.2467 10.0141 12.2467 9.72772C12.2496 9.69268 12.2569 9.65814 12.2683 9.62486C12.0474 10.0477 11.7631 10.435 11.4251 10.7734C11.6247 10.8501 11.7556 11.0413 11.7537 11.2534C11.7537 11.5398 11.5194 11.772 11.2305 11.772C10.9804 11.7689 10.7688 11.5881 10.7288 11.3434C9.1744 12.3744 7.14599 12.3744 5.59155 11.3434C5.54926 11.5882 5.3365 11.7681 5.08592 11.7709C4.83534 11.7737 4.61854 11.5986 4.57069 11.3548ZM11.4812 7.54201C11.4812 5.7242 9.99429 4.25058 8.16011 4.25058C6.32692 4.25294 4.84141 5.72518 4.83903 7.54201C4.83903 9.35982 6.32593 10.8334 8.16011 10.8334C9.99429 10.8334 11.4812 9.35982 11.4812 7.54201Z" fill="#DD0031"/>
<path d="M9.69536 12.2617C9.40638 12.2617 9.17212 12.4939 9.17212 12.7803C9.17212 13.0667 9.40638 13.2989 9.69536 13.2989C9.98434 13.2989 10.2186 13.0667 10.2186 12.7803C10.2186 12.4939 9.98434 12.2617 9.69536 12.2617V12.2617Z" fill="#DD0031"/>
<path d="M12.7702 12.2617C12.4812 12.2617 12.2469 12.4939 12.2469 12.7803C12.2469 13.0667 12.4812 13.2989 12.7702 13.2989C13.0592 13.2989 13.2934 13.0667 13.2934 12.7803C13.2934 12.4939 13.0592 12.2617 12.7702 12.2617V12.2617Z" fill="#DD0031"/>
<path d="M9.6956 15.3047C9.48184 15.303 9.28814 15.4293 9.20512 15.6245C9.1221 15.8197 9.16616 16.0453 9.3167 16.1957C9.46724 16.3462 9.69449 16.3917 9.89216 16.311C10.0898 16.2303 10.2188 16.0394 10.2188 15.8276C10.2189 15.5405 9.98528 15.3071 9.6956 15.3047Z" fill="#DD0031"/>
<path d="M11.2308 13.7832C10.9418 13.7832 10.7075 14.0154 10.7075 14.3018C10.7075 14.5882 10.9418 14.8203 11.2308 14.8203C11.5197 14.8203 11.754 14.5882 11.754 14.3018C11.754 14.0154 11.5197 13.7832 11.2308 13.7832Z" fill="#DD0031"/>
<path d="M8.16045 13.7832C7.87147 13.7832 7.63721 14.0154 7.63721 14.3018C7.63721 14.5882 7.87147 14.8203 8.16045 14.8203C8.44943 14.8203 8.68369 14.5882 8.68369 14.3018C8.68369 14.1642 8.62857 14.0323 8.53044 13.9351C8.43231 13.8378 8.29922 13.7832 8.16045 13.7832Z" fill="#DD0031"/>
<path d="M8.16045 16.8301C7.87147 16.8301 7.63721 17.0622 7.63721 17.3486C7.63721 17.635 7.87147 17.8672 8.16045 17.8672C8.44943 17.8672 8.68369 17.635 8.68369 17.3486C8.68369 17.2111 8.62857 17.0792 8.53044 16.982C8.43231 16.8847 8.29922 16.8301 8.16045 16.8301Z" fill="#DD0031"/>
<path d="M9.69558 18.3516C9.48279 18.3516 9.29122 18.4794 9.21105 18.6748C9.13089 18.8701 9.17808 19.0942 9.33043 19.2414C9.48278 19.3886 9.70993 19.4298 9.90497 19.3454C10.1 19.2611 10.2241 19.0681 10.2188 18.8573C10.2118 18.5759 9.97957 18.3515 9.69558 18.3516V18.3516Z" fill="#DD0031"/>
<path d="M8.16045 19.873C7.87147 19.873 7.63721 20.1052 7.63721 20.3916C7.63721 20.678 7.87147 20.9102 8.16045 20.9102C8.44943 20.9102 8.68369 20.678 8.68369 20.3916C8.68369 20.2541 8.62857 20.1222 8.53044 20.0249C8.43231 19.9277 8.29922 19.873 8.16045 19.873Z" fill="#DD0031"/>
<path d="M3.55046 12.2617C3.26149 12.2617 3.02722 12.4939 3.02722 12.7803C3.02722 13.0667 3.26149 13.2989 3.55046 13.2989C3.83944 13.2989 4.07371 13.0667 4.07371 12.7803C4.07371 12.4939 3.83944 12.2617 3.55046 12.2617V12.2617Z" fill="#DD0031"/>
<path d="M6.62517 12.2617C6.33619 12.2617 6.10193 12.4939 6.10193 12.7803C6.10193 13.0667 6.33619 13.2989 6.62517 13.2989C6.91415 13.2989 7.14842 13.0667 7.14842 12.7803C7.14606 12.4949 6.91317 12.264 6.62517 12.2617V12.2617Z" fill="#DD0031"/>
<path d="M6.62505 15.3047C6.41128 15.303 6.21759 15.4293 6.13457 15.6245C6.05154 15.8197 6.09561 16.0453 6.24614 16.1957C6.39668 16.3462 6.62393 16.3917 6.8216 16.311C7.01927 16.2303 7.14828 16.0394 7.14829 15.8276C7.1483 15.5405 6.91472 15.3071 6.62505 15.3047Z" fill="#DD0031"/>
<path d="M5.08574 13.7832C4.79676 13.7832 4.5625 14.0154 4.5625 14.3018C4.5625 14.5882 4.79676 14.8203 5.08574 14.8203C5.37472 14.8203 5.60899 14.5882 5.60899 14.3018C5.60899 14.0154 5.37472 13.7832 5.08574 13.7832Z" fill="#DD0031"/>
<path d="M6.62527 18.3516C6.41247 18.3516 6.22091 18.4794 6.14074 18.6748C6.06057 18.8701 6.10777 19.0942 6.26012 19.2414C6.41247 19.3886 6.63962 19.4298 6.83466 19.3454C7.02971 19.2611 7.15379 19.0681 7.14852 18.8573C7.13924 18.5769 6.90834 18.3537 6.62527 18.3516V18.3516Z" fill="#DD0031"/>
</svg>
